pinch_force_states
version=1
nRows=5
nColumns=45
inDegrees=yes

# SIMM Motion File Header:
name pinch_force_states
datacolumns 45
datarows 5
otherdata 1
range 0.04995262 0.05035262
endheader
time	/jointset/radiocarpal/deviation/value	/jointset/radiocarpal/deviation/speed	/jointset/radiocarpal/flexion/value	/jointset/radiocarpal/flexion/speed	/jointset/wrist_hand/wrist_hand_r1/value	/jointset/wrist_hand/wrist_hand_r1/speed	/jointset/wrist_hand/wrist_hand_r3/value	/jointset/wrist_hand/wrist_hand_r3/speed	/jointset/CMC1a/cmc_flexion/value	/jointset/CMC1a/cmc_flexion/speed	/jointset/CMC1b/cmc_abduction/value	/jointset/CMC1b/cmc_abduction/speed	/jointset/MCP/mp_flexion/value	/jointset/MCP/mp_flexion/speed	/jointset/IP/ip_flexion/value	/jointset/IP/ip_flexion/speed	/forceset/ECRL/activation	/forceset/ECRL/fiber_length	/forceset/ECRB/activation	/forceset/ECRB/fiber_length	/forceset/ECU/activation	/forceset/ECU/fiber_length	/forceset/FCR/activation	/forceset/FCR/fiber_length	/forceset/FCU/activation	/forceset/FCU/fiber_length	/forceset/EPL/activation	/forceset/EPL/fiber_length	/forceset/EPB/activation	/forceset/EPB/fiber_length	/forceset/FPL/activation	/forceset/FPL/fiber_length	/forceset/APL/activation	/forceset/APL/fiber_length	/forceset/APB/activation	/forceset/APB/fiber_length	/forceset/FPB/activation	/forceset/FPB/fiber_length	/forceset/OPP/activation	/forceset/OPP/fiber_length	/forceset/ADPt/activation	/forceset/ADPt/fiber_length	/forceset/ADPo/activation	/forceset/ADPo/fiber_length
      0.04995262	      0.01365909	     -0.03032163	     -0.04370908	     -0.34446154	      1.05335980	     -2.31891628	     -1.25217301	     -9.86809636	    -13.82791936	     13.60454039	    -14.53778295	     37.01350702	     17.91155370	    -13.45459969	     44.31091670	     26.51939874	      0.01238483	      0.06419408	      0.36622056	      0.05516286	      0.99862122	      0.05945654	      0.00592779	      0.05111838	      0.60768366	      0.03036506	      0.47396701	      0.05225667	      0.07694563	      0.06438009	      1.00000000	      0.05404575	      0.01293340	      0.07122149	      0.08647987	      0.05305173	      0.12944159	      0.05051262	      0.51645636	      0.04480661	      0.99666356	      0.03871172	      0.87323913	      0.03189616
      0.05005262	      0.01365589	     -0.03357419	     -0.04374420	     -0.35788565	      1.05311543	     -2.56767331	     -1.25317908	    -10.25266877	    -13.82653579	     14.06617917	    -14.53401629	     38.31826715	     17.91020300	    -13.55979489	     44.31359663	     27.07918063	      0.01238483	      0.06419473	      0.36622056	      0.05516287	      0.99862122	      0.05945600	      0.00591963	      0.05111798	      0.60768366	      0.03036474	      0.47396701	      0.05225710	      0.07694563	      0.06438003	      1.00000000	      0.05404602	      0.01293340	      0.07122165	      0.08647987	      0.05305162	      0.12944159	      0.05051271	      0.51645636	      0.04480651	      0.99666356	      0.03871196	      0.87323913	      0.03189657
      0.05015262	      0.01365238	     -0.03674898	     -0.04378066	     -0.37119519	      1.05284647	     -2.81048533	     -1.25422344	    -10.63395888	    -13.82510628	     14.52304338	    -14.53011959	     39.61434475	     17.90884163	    -13.66829429	     44.31633255	     27.63917681	      0.01238483	      0.06419537	      0.36622056	      0.05516288	      0.99862122	      0.05945547	      0.00591148	      0.05111759	      0.60768366	      0.03036441	      0.47396701	      0.05225753	      0.07694563	      0.06437997	      1.00000000	      0.05404629	      0.01293340	      0.07122181	      0.08647987	      0.05305150	      0.12944159	      0.05051280	      0.51645636	      0.04480640	      0.99666356	      0.03871220	      0.87323913	      0.03189698
      0.05025262	      0.01364855	     -0.03984617	     -0.04381844	     -0.38438812	      1.05255353	     -3.04736630	     -1.25530576	    -11.01190847	    -13.82363134	     14.97507020	    -14.52609372	     40.90151030	     17.90746924	    -13.78003047	     44.31912447	     28.19923355	      0.01238483	      0.06419598	      0.36622056	      0.05516288	      0.99862122	      0.05945494	      0.00590333	      0.05111722	      0.60768366	      0.03036409	      0.47396701	      0.05225797	      0.07694563	      0.06437990	      1.00000000	      0.05404656	      0.01293340	      0.07122197	      0.08647987	      0.05305137	      0.12944159	      0.05051290	      0.51645636	      0.04480629	      0.99666356	      0.03871244	      0.87323913	      0.03189740
      0.05035262	      0.01364441	     -0.04286597	     -0.04385753	     -0.39746244	      1.05223719	     -3.27833212	     -1.25642571	    -11.38646014	    -13.82211143	     15.42219877	    -14.52193959	     42.17953633	     17.90608551	    -13.89493614	     44.32197239	     28.75919806	      0.01238483	      0.06419657	      0.36622056	      0.05516289	      0.99862122	      0.05945441	      0.00589518	      0.05111686	      0.60768366	      0.03036377	      0.47396701	      0.05225840	      0.07694563	      0.06437984	      1.00000000	      0.05404684	      0.01293340	      0.07122211	      0.08647987	      0.05305122	      0.12944159	      0.05051299	      0.51645636	      0.04480617	      0.99666356	      0.03871269	      0.87323913	      0.03189781
